<?xml version="1.0" standalone="no"?><svg xmlns:xlink="http://www.w3.org/1999/xlink" xmlns="http://www.w3.org/2000/svg" viewBox="0 0 1000 400" preserveAspectRatio="xMaxYMax slice"><g transform="scale(1.146131805157593)"><rect x="0" y="0" width="872.5" height="349" fill="#ffffff"/><rect x="0" y="0" width="87.25" height="87.25" fill="#ffffff"/><rect x="0" y="0" width="43.63" height="43.63" fill="#e5f0d8"/><polygon points="43.63,0 43.63,43.63 0,43.63" fill="#e3efd6"/><rect x="43.63" y="0" width="43.63" height="43.63" fill="#ebf3e1"/><polygon points="43.63,0 87.26,43.63 43.63,43.63" fill="#cbe1b2"/><rect x="0" y="43.63" width="43.63" height="43.63" fill="#cae0b0"/><polygon points="0,43.63 43.63,43.63 0,87.26" fill="#d5e7c1"/><rect x="43.63" y="43.63" width="43.63" height="43.63" fill="#faf4c5"/><polygon points="43.63,43.63 87.26,43.63 87.26,87.26" fill="#eaf3e0"/><rect x="87.25" y="0" width="87.25" height="87.25" fill="#fcfae2"/><path d="M 87.25 87.25 A 87.25 87.25 0 0 1  174.5 0 L 87.25 87.25 A 87.25 87.25 0 0 0 174.5 0" fill="#f7f0ab"/><rect x="174.5" y="0" width="87.25" height="87.25" fill="#deecce"/><path d="M 174.5 0 A 87.25 87.25 0 0 1  261.75 87.25 L 174.5 0 A 87.25 87.25 0 0 0 261.75 87.25" fill="#f1e46a"/><rect x="261.75" y="0" width="87.25" height="87.25" fill="#ffffff"/><rect x="261.75" y="0" width="43.63" height="43.63" fill="#e4f0d8"/><path d="M 261.75 43.63 A 43.63 43.63 0 0 1  305.38 0 L 305.38 43.63" fill="#faf5ca"/><rect x="305.38" y="0" width="43.63" height="43.63" fill="#fbf7d4"/><path d="M 305.38 0 A 43.63 43.63 0 0 1 349.01 43.63 L 305.38 43.63" fill="#f8f1b2"/><rect x="261.75" y="43.63" width="43.63" height="43.63" fill="#d4e6c0"/><path d="M 261.75 43.63 A 43.63 43.63 0 0 0 305.38 87.26 L 305.38 43.63" fill="#fbf8d7"/><rect x="305.38" y="43.63" width="43.63" height="43.63" fill="#f1e365"/><path d="M 305.38 87.26 A 43.63 43.63 0 0 0 349.01 43.63 L 305.38 43.63" fill="#d1e5bc"/><rect x="349" y="0" width="87.25" height="87.25" fill="#ffffff"/><rect x="349" y="0" width="43.63" height="43.63" fill="#f4e883"/><path d="M 349 0 A 43.63 43.63 0 0 1 392.63 43.63 L 349 43.63" fill="#fcf8dc"/><rect x="392.63" y="0" width="43.63" height="43.63" fill="#f1e367"/><path d="M 392.63 43.63 A 43.63 43.63 0 0 1  436.26 0 L 436.26 43.63" fill="#ebf3e1"/><rect x="349" y="43.63" width="43.63" height="43.63" fill="#f6ec99"/><path d="M 349 87.26 A 43.63 43.63 0 0 0 392.63 43.63 L 349 43.63" fill="#e9f2de"/><rect x="392.63" y="43.63" width="43.63" height="43.63" fill="#ddebcd"/><path d="M 392.63 43.63 A 43.63 43.63 0 0 0 436.26 87.26 L 436.26 43.63" fill="#f2e574"/><rect x="436.25" y="0" width="87.25" height="87.25" fill="#ffffff"/><rect x="436.25" y="0" width="43.63" height="43.63" fill="#fdfbeb"/><path d="M 436.25 0 A 43.63 43.63 0 0 0 479.88 43.63 L 479.88 0" fill="#eaf3e0"/><rect x="479.88" y="0" width="43.63" height="43.63" fill="#f9f4c2"/><path d="M 479.88 43.63 A 43.63 43.63 0 0 0 523.51 0 L 479.88 0" fill="#fbfdf9"/><rect x="436.25" y="43.63" width="43.63" height="43.63" fill="#d6e7c3"/><path d="M 436.25 87.26 A 43.63 43.63 0 0 1  479.88 43.63 L 479.88 87.26" fill="#f5eb93"/><rect x="479.88" y="43.63" width="43.63" height="43.63" fill="#e2eed4"/><path d="M 479.88 43.63 A 43.63 43.63 0 0 1 523.51 87.26 L 479.88 87.26" fill="#f8f1b3"/><rect x="523.5" y="0" width="87.25" height="87.25" fill="#ffffff"/><rect x="523.5" y="0" width="43.63" height="43.63" fill="#e3efd6"/><path d="M 523.5 43.63 A 43.63 43.63 0 0 0 567.13 0 L 523.5 0" fill="#fcfdfb"/><rect x="567.13" y="0" width="43.63" height="43.63" fill="#cce2b4"/><path d="M 567.13 0 A 43.63 43.63 0 0 0 610.76 43.63 L 610.76 0" fill="#fffffe"/><rect x="523.5" y="43.63" width="43.63" height="43.63" fill="#fcf8db"/><path d="M 523.5 43.63 A 43.63 43.63 0 0 1 567.13 87.26 L 523.5 87.26" fill="#f3f8ee"/><rect x="567.13" y="43.63" width="43.63" height="43.63" fill="#f6eea2"/><path d="M 567.13 87.26 A 43.63 43.63 0 0 1  610.76 43.63 L 610.76 87.26" fill="#fcfae2"/><rect x="610.75" y="0" width="87.25" height="87.25" fill="#ffffff"/><rect x="610.75" y="0" width="43.63" height="43.63" fill="#f6faf2"/><circle cx="632.565" cy="21.815" r="21.815" fill="#d2e5bd"/><rect x="654.38" y="0" width="43.63" height="43.63" fill="#e3efd6"/><rect x="654.38" y="0" width="43.63" height="43.63" fill="#d5e7c1"/><rect x="610.75" y="43.63" width="43.63" height="43.63" fill="#eff6e7"/><circle cx="632.565" cy="65.44500000000001" r="21.815" fill="#faf6cd"/><rect x="654.38" y="43.63" width="43.63" height="43.63" fill="#cbe1b3"/><rect x="654.38" y="43.63" width="43.63" height="43.63" fill="#fefefa"/><rect x="698" y="0" width="87.25" height="87.25" fill="#ffffff"/><rect x="698" y="0" width="43.63" height="43.63" fill="#e1eed3"/><path d="M 698 0 A 43.63 43.63 0 0 0 741.63 43.63 L 741.63 0" fill="#e1eed3"/><rect x="741.63" y="0" width="43.63" height="43.63" fill="#f1e366"/><path d="M 741.63 43.63 A 43.63 43.63 0 0 0 785.26 0 L 741.63 0" fill="#f1e367"/><rect x="698" y="43.63" width="43.63" height="43.63" fill="#cde2b5"/><path d="M 698 87.26 A 43.63 43.63 0 0 1  741.63 43.63 L 741.63 87.26" fill="#f8fbf5"/><rect x="741.63" y="43.63" width="43.63" height="43.63" fill="#ddebcd"/><path d="M 741.63 43.63 A 43.63 43.63 0 0 1 785.26 87.26 L 741.63 87.26" fill="#f0e260"/><rect x="785.25" y="0" width="87.25" height="87.25" fill="#f8f1b6"/><path d="M 785.25 0 A 87.25 87.25 0 0 0 872.5 87.25 L 872.5 0" fill="#fbf7d5"/><rect x="0" y="87.25" width="87.25" height="87.25" fill="#ffffff"/><rect x="0" y="87.25" width="43.63" height="43.63" fill="#fefefd"/><polygon points="43.63,87.25 43.63,130.88 0,130.88" fill="#f0e15e"/><rect x="43.63" y="87.25" width="43.63" height="43.63" fill="#e1eed3"/><polygon points="43.63,87.25 87.26,130.88 43.63,130.88" fill="#f5eb93"/><rect x="0" y="130.88" width="43.63" height="43.63" fill="#f2e46d"/><polygon points="0,130.88 43.63,130.88 43.63,174.51" fill="#f1e366"/><rect x="43.63" y="130.88" width="43.63" height="43.63" fill="#d8e9c6"/><polygon points="43.63,130.88 87.26,130.88 43.63,174.51" fill="#ecf4e2"/><rect x="87.25" y="87.25" width="87.25" height="87.25" fill="#ffffff"/><rect x="87.25" y="87.25" width="43.63" height="43.63" fill="#d4e6bf"/><polygon points="130.88,87.25 130.88,130.88 87.25,130.88" fill="#eff5e7"/><rect x="130.88" y="87.25" width="43.63" height="43.63" fill="#f3f8ed"/><polygon points="130.88,87.25 174.51,87.25 130.88,130.88" fill="#fefef7"/><rect x="87.25" y="130.88" width="43.63" height="43.63" fill="#dcebcb"/><polygon points="87.25,130.88 130.88,130.88 130.88,174.51" fill="#e2eed4"/><rect x="130.88" y="130.88" width="43.63" height="43.63" fill="#f0f6e9"/><polygon points="130.88,130.88 174.51,174.51 130.88,174.51" fill="#c6deab"/><rect x="174.5" y="87.25" width="87.25" height="87.25" fill="#ffffff"/><rect x="174.5" y="87.25" width="43.63" height="43.63" fill="#cee3b7"/><polygon points="218.13,87.25 218.13,130.88 174.5,130.88" fill="#f1e368"/><rect x="218.13" y="87.25" width="43.63" height="43.63" fill="#c7dfad"/><polygon points="218.13,87.25 261.76,130.88 218.13,130.88" fill="#f5eb94"/><rect x="174.5" y="130.88" width="43.63" height="43.63" fill="#eef5e6"/><polygon points="174.5,130.88 218.13,130.88 218.13,174.51" fill="#edf5e5"/><rect x="218.13" y="130.88" width="43.63" height="43.63" fill="#cfe3b9"/><polygon points="218.13,130.88 261.76,130.88 218.13,174.51" fill="#f9f3bb"/><rect x="261.75" y="87.25" width="87.25" height="87.25" fill="#d6e7c3"/><path d="M 261.75 87.25 A 87.25 87.25 0 0 1  349 174.5 L 261.75 87.25 A 87.25 87.25 0 0 0 349 174.5" fill="#f9f4c2"/><rect x="349" y="87.25" width="87.25" height="87.25" fill="#eff6e8"/><path d="M 349 174.5 A 87.25 87.25 0 0 1  436.25 87.25 L 349 174.5 A 87.25 87.25 0 0 0 436.25 87.25" fill="#d5e7c1"/><rect x="436.25" y="87.25" width="87.25" height="87.25" fill="#ffffff"/><rect x="436.25" y="87.25" width="43.63" height="43.63" fill="#f4e986"/><path d="M 436.25 130.88 A 43.63 43.63 0 0 1 479.88 87.25 L 479.88 98.1575 A 32.722500000000004 32.722500000000004 0 0 0 447.1575 130.88" fill="#f2f7eb"/><rect x="479.88" y="87.25" width="43.63" height="43.63" fill="#fcfefb"/><path d="M 479.88 87.25 A 43.63 43.63 0 0 1 523.51 130.88 L 512.6025 130.88 A 32.722500000000004 32.722500000000004 0 0 0 479.88 98.1575" fill="#f9f3be"/><rect x="436.25" y="130.88" width="43.63" height="43.63" fill="#fdfcee"/><path d="M 436.25 130.88 A 43.63 43.63 0 0 0 479.88 174.51 L 479.88 163.6025 A 32.722500000000004 32.722500000000004 0 0 1 447.1575 130.88" fill="#fafcf8"/><rect x="479.88" y="130.88" width="43.63" height="43.63" fill="#e8f1dc"/><path d="M 479.88 174.51 A 43.63 43.63 0 0 0 523.51 130.88 L 512.6025 130.88 A 32.722500000000004 32.722500000000004 0 0 1 479.88 163.6025" fill="#f3e77a"/><rect x="523.5" y="87.25" width="87.25" height="87.25" fill="#d5e7c1"/><path d="M 523.5 174.5 A 87.25 87.25 0 0 0 610.75 87.25 L 523.5 87.25" fill="#e0edd1"/><rect x="610.75" y="87.25" width="87.25" height="87.25" fill="#ffffff"/><rect x="610.75" y="87.25" width="43.63" height="43.63" fill="#fbf8d8"/><path d="M 610.75 130.88 A 43.63 43.63 0 0 1  654.38 87.25 L 654.38 130.88" fill="#e1eed3"/><rect x="654.38" y="87.25" width="43.63" height="43.63" fill="#f7eea4"/><path d="M 654.38 87.25 A 43.63 43.63 0 0 1 698.01 130.88 L 654.38 130.88" fill="#f7faf3"/><rect x="610.75" y="130.88" width="43.63" height="43.63" fill="#f4f9ef"/><path d="M 610.75 130.88 A 43.63 43.63 0 0 0 654.38 174.51 L 654.38 130.88" fill="#e0edd1"/><rect x="654.38" y="130.88" width="43.63" height="43.63" fill="#fdfefc"/><path d="M 654.38 174.51 A 43.63 43.63 0 0 0 698.01 130.88 L 654.38 130.88" fill="#eef5e6"/><rect x="698" y="87.25" width="87.25" height="87.25" fill="#c7deac"/><polygon points="698,87.25 785.25,87.25 698,174.5" fill="#c6deab"/><rect x="785.25" y="87.25" width="87.25" height="87.25" fill="#c8dfad"/><rect x="785.25" y="87.25" width="87.25" height="87.25" fill="#dae9c8"/><rect x="0" y="174.5" width="87.25" height="87.25" fill="#f1e366"/><polygon points="0,174.5 87.25,174.5 87.25,261.75" fill="#f3e678"/><rect x="87.25" y="174.5" width="87.25" height="87.25" fill="#dfecd0"/><rect x="87.25" y="174.5" width="87.25" height="87.25" fill="#f6ed9e"/><rect x="174.5" y="174.5" width="87.25" height="87.25" fill="#ffffff"/><rect x="174.5" y="174.5" width="43.63" height="43.63" fill="#d4e6bf"/><path d="M 174.5 218.13 A 43.63 43.63 0 0 1  218.13 174.5 L 218.13 218.13" fill="#f3e77c"/><rect x="218.13" y="174.5" width="43.63" height="43.63" fill="#d7e8c3"/><path d="M 218.13 174.5 A 43.63 43.63 0 0 1 261.76 218.13 L 218.13 218.13" fill="#d8e8c5"/><rect x="174.5" y="218.13" width="43.63" height="43.63" fill="#f7f0ad"/><path d="M 174.5 218.13 A 43.63 43.63 0 0 0 218.13 261.76 L 218.13 218.13" fill="#fafcf7"/><rect x="218.13" y="218.13" width="43.63" height="43.63" fill="#f4f9ef"/><path d="M 218.13 261.76 A 43.63 43.63 0 0 0 261.76 218.13 L 218.13 218.13" fill="#f7efa7"/><rect x="261.75" y="174.5" width="87.25" height="87.25" fill="#ffffff"/><rect x="261.75" y="174.5" width="43.63" height="43.63" fill="#faf6cd"/><path d="M 261.75 218.13 A 43.63 43.63 0 0 1 305.38 174.5 L 305.38 185.4075 A 32.722500000000004 32.722500000000004 0 0 0 272.6575 218.13" fill="#f4e989"/><rect x="305.38" y="174.5" width="43.63" height="43.63" fill="#c7dfac"/><path d="M 305.38 174.5 A 43.63 43.63 0 0 1 349.01 218.13 L 338.1025 218.13 A 32.722500000000004 32.722500000000004 0 0 0 305.38 185.4075" fill="#f5eb93"/><rect x="261.75" y="218.13" width="43.63" height="43.63" fill="#f8f0af"/><path d="M 261.75 218.13 A 43.63 43.63 0 0 0 305.38 261.76 L 305.38 250.8525 A 32.722500000000004 32.722500000000004 0 0 1 272.6575 218.13" fill="#dfedd0"/><rect x="305.38" y="218.13" width="43.63" height="43.63" fill="#fdfcef"/><path d="M 305.38 261.76 A 43.63 43.63 0 0 0 349.01 218.13 L 338.1025 218.13 A 32.722500000000004 32.722500000000004 0 0 1 305.38 250.8525" fill="#f4e98a"/><rect x="349" y="174.5" width="87.25" height="87.25" fill="#ffffff"/><rect x="349" y="174.5" width="43.63" height="43.63" fill="#fefffe"/><polygon points="392.63,174.5 392.63,218.13 349,218.13" fill="#f6faf2"/><rect x="392.63" y="174.5" width="43.63" height="43.63" fill="#d2e5bd"/><polygon points="392.63,174.5 436.26,218.13 392.63,218.13" fill="#cce2b4"/><rect x="349" y="218.13" width="43.63" height="43.63" fill="#d2e5bc"/><polygon points="349,218.13 392.63,218.13 392.63,261.76" fill="#fcfefb"/><rect x="392.63" y="218.13" width="43.63" height="43.63" fill="#f6faf2"/><polygon points="392.63,218.13 436.26,218.13 392.63,261.76" fill="#fdfbe8"/><rect x="436.25" y="174.5" width="87.25" height="87.25" fill="#ffffff"/><rect x="436.25" y="174.5" width="43.63" height="43.63" fill="#d7e8c5"/><path d="M 436.25 174.5 A 43.63 43.63 0 0 0 479.88 218.13 L 479.88 174.5" fill="#faf5c7"/><rect x="479.88" y="174.5" width="43.63" height="43.63" fill="#f3e881"/><path d="M 479.88 218.13 A 43.63 43.63 0 0 0 523.51 174.5 L 479.88 174.5" fill="#fefefd"/><rect x="436.25" y="218.13" width="43.63" height="43.63" fill="#fbfdf9"/><path d="M 436.25 261.76 A 43.63 43.63 0 0 1  479.88 218.13 L 479.88 261.76" fill="#f3e77e"/><rect x="479.88" y="218.13" width="43.63" height="43.63" fill="#f3e882"/><path d="M 479.88 218.13 A 43.63 43.63 0 0 1 523.51 261.76 L 479.88 261.76" fill="#ecf4e3"/><rect x="523.5" y="174.5" width="87.25" height="87.25" fill="#f2f7ec"/><path d="M 523.5 174.5 A 87.25 87.25 0 0 1 610.75 261.75 L 523.5 261.75" fill="#fcfdfa"/><rect x="610.75" y="174.5" width="87.25" height="87.25" fill="#ffffff"/><rect x="610.75" y="174.5" width="43.63" height="43.63" fill="#f3e880"/><path d="M 610.75 174.5 A 43.63 43.63 0 0 1 654.38 218.13 L 610.75 218.13" fill="#fcf8db"/><rect x="654.38" y="174.5" width="43.63" height="43.63" fill="#c6deac"/><path d="M 654.38 218.13 A 43.63 43.63 0 0 1  698.01 174.5 L 698.01 218.13" fill="#f2f7eb"/><rect x="610.75" y="218.13" width="43.63" height="43.63" fill="#faf5c6"/><path d="M 610.75 261.76 A 43.63 43.63 0 0 0 654.38 218.13 L 610.75 218.13" fill="#e8f2de"/><rect x="654.38" y="218.13" width="43.63" height="43.63" fill="#fefffe"/><path d="M 654.38 218.13 A 43.63 43.63 0 0 0 698.01 261.76 L 698.01 218.13" fill="#deeccf"/><rect x="698" y="174.5" width="87.25" height="87.25" fill="#f5ec96"/><polygon points="698,174.5 785.25,174.5 785.25,261.75" fill="#f6faf1"/><rect x="785.25" y="174.5" width="87.25" height="87.25" fill="#ffffff"/><rect x="785.25" y="174.5" width="43.63" height="43.63" fill="#dcebcc"/><polygon points="828.88,174.5 828.88,218.13 785.25,218.13" fill="#f3e77b"/><rect x="828.88" y="174.5" width="43.63" height="43.63" fill="#fdfbe7"/><polygon points="828.88,174.5 872.51,218.13 828.88,218.13" fill="#cfe3b9"/><rect x="785.25" y="218.13" width="43.63" height="43.63" fill="#fefcf1"/><polygon points="785.25,218.13 828.88,218.13 785.25,261.76" fill="#f3e77b"/><rect x="828.88" y="218.13" width="43.63" height="43.63" fill="#e9f2de"/><polygon points="828.88,218.13 872.51,218.13 872.51,261.76" fill="#e3efd6"/><rect x="0" y="261.75" width="87.25" height="87.25" fill="#ffffff"/><rect x="0" y="261.75" width="43.63" height="43.63" fill="#e9f3df"/><path d="M 0 261.75 A 43.63 43.63 0 0 1 43.63 305.38 L 0 305.38" fill="#f3e67a"/><rect x="43.63" y="261.75" width="43.63" height="43.63" fill="#e0edd1"/><path d="M 43.63 305.38 A 43.63 43.63 0 0 1  87.26 261.75 L 87.26 305.38" fill="#faf5ca"/><rect x="0" y="305.38" width="43.63" height="43.63" fill="#d3e6bf"/><path d="M 0 349.01 A 43.63 43.63 0 0 0 43.63 305.38 L 0 305.38" fill="#edf5e4"/><rect x="43.63" y="305.38" width="43.63" height="43.63" fill="#f2e571"/><path d="M 43.63 305.38 A 43.63 43.63 0 0 0 87.26 349.01 L 87.26 305.38" fill="#fefdf6"/><rect x="87.25" y="261.75" width="87.25" height="87.25" fill="#ffffff"/><rect x="87.25" y="261.75" width="43.63" height="43.63" fill="#f0e25f"/><polygon points="130.88,261.75 130.88,305.38 87.25,305.38" fill="#fefffe"/><rect x="130.88" y="261.75" width="43.63" height="43.63" fill="#ebf3e1"/><polygon points="130.88,261.75 174.51,261.75 130.88,305.38" fill="#cfe3b8"/><rect x="87.25" y="305.38" width="43.63" height="43.63" fill="#e5f0d9"/><polygon points="87.25,305.38 130.88,305.38 130.88,349.01" fill="#f7eea5"/><rect x="130.88" y="305.38" width="43.63" height="43.63" fill="#fefdf5"/><polygon points="130.88,305.38 174.51,349.01 130.88,349.01" fill="#ecf4e3"/><rect x="174.5" y="261.75" width="87.25" height="87.25" fill="#f7efa9"/><path d="M 174.5 261.75 A 87.25 87.25 0 0 1 261.75 349 L 174.5 349" fill="#fffefb"/><rect x="261.75" y="261.75" width="87.25" height="87.25" fill="#f3e77c"/><path d="M 261.75 261.75 A 87.25 87.25 0 0 1 349 349 L 261.75 349" fill="#f1f7ea"/><rect x="349" y="261.75" width="87.25" height="87.25" fill="#c7deac"/><rect x="349" y="261.75" width="87.25" height="87.25" fill="#f7efa8"/><rect x="436.25" y="261.75" width="87.25" height="87.25" fill="#c7deac"/><polygon points="436.25,261.75 523.5,349 436.25,349" fill="#f9f2bb"/><rect x="523.5" y="261.75" width="87.25" height="87.25" fill="#e5f0d8"/><path d="M 523.5 349 A 87.25 87.25 0 0 1  610.75 261.75 L 610.75 349" fill="#fefdf5"/><rect x="610.75" y="261.75" width="87.25" height="87.25" fill="#ffffff"/><rect x="610.75" y="261.75" width="43.63" height="43.63" fill="#f0f6e8"/><path d="M 610.75 305.38 A 43.63 43.63 0 0 1  654.38 261.75 L 654.38 305.38" fill="#cce1b3"/><rect x="654.38" y="261.75" width="43.63" height="43.63" fill="#fffffd"/><path d="M 654.38 261.75 A 43.63 43.63 0 0 1 698.01 305.38 L 654.38 305.38" fill="#fdfbeb"/><rect x="610.75" y="305.38" width="43.63" height="43.63" fill="#eff6e8"/><path d="M 610.75 305.38 A 43.63 43.63 0 0 0 654.38 349.01 L 654.38 305.38" fill="#f4e883"/><rect x="654.38" y="305.38" width="43.63" height="43.63" fill="#eef5e6"/><path d="M 654.38 349.01 A 43.63 43.63 0 0 0 698.01 305.38 L 654.38 305.38" fill="#fcf8da"/><rect x="698" y="261.75" width="87.25" height="87.25" fill="#d2e5bd"/><path d="M 698 349 A 87.25 87.25 0 0 0 785.25 261.75 L 698 261.75" fill="#d8e9c6"/><rect x="785.25" y="261.75" width="87.25" height="87.25" fill="#ffffff"/><rect x="785.25" y="261.75" width="43.63" height="43.63" fill="#f4e989"/><circle cx="807.065" cy="283.565" r="21.815" fill="#f2e677"/><rect x="828.88" y="261.75" width="43.63" height="43.63" fill="#fbfdfa"/><rect x="828.88" y="261.75" width="43.63" height="43.63" fill="#ddebcd"/><rect x="785.25" y="305.38" width="43.63" height="43.63" fill="#fdfcec"/><circle cx="807.065" cy="327.195" r="21.815" fill="#f6ed9d"/><rect x="828.88" y="305.38" width="43.63" height="43.63" fill="#faf5cb"/><rect x="828.88" y="305.38" width="43.63" height="43.63" fill="#d7e8c4"/></g></svg>