<?xml version="1.0"?>
<svg version="1.1" xmlns="http://www.w3.org/2000/svg" width="52px" height="200px" style=""><path fill="#4780a8" d="M0.814,113.2l1.364,0l0-9.328q0-1.848,1.408-3.3q1.408-1.408,3.256-1.408t3.3,1.408q1.408,1.452,1.408,3.3l0,9.328l1.364,0l0-9.328q0-2.508-1.782-4.29t-4.29-1.782q-2.464,0-4.246,1.782t-1.782,4.29l0,9.328z M22.94248,105.478l1.65,0q1.672,0,2.772-1.1t1.1-2.772q0-1.474-1.1-2.64q-1.166-1.21-2.772-1.21l-6.886,0l-1.364,0l0,15.444l1.364,0l0-7.722l3.586,0l4.686,7.722l1.65,0z M17.70648,104.114l0-4.972l6.886,0q1.012,0,1.782,0.726q0.726,0.726,0.726,1.738q0,1.056-0.726,1.782q-0.77,0.726-1.782,0.726l-6.886,0z"/><path fill="#" d=""/></svg>
