<svg id="visual" viewBox="0 0 900 600" width="900" height="600" xmlns="http://www.w3.org/2000/svg" xmlns:xlink="http://www.w3.org/1999/xlink" version="1.1"><path d="M0 253L13.7 252C27.3 251 54.7 249 82 227C109.3 205 136.7 163 163.8 155C191 147 218 173 245.2 176C272.3 179 299.7 159 327 156C354.3 153 381.7 167 409 182C436.3 197 463.7 213 491 217C518.3 221 545.7 213 573 218C600.3 223 627.7 241 654.8 221C682 201 709 143 736.2 117C763.3 91 790.7 97 818 117C845.3 137 872.7 171 886.3 188L900 205L900 0L886.3 0C872.7 0 845.3 0 818 0C790.7 0 763.3 0 736.2 0C709 0 682 0 654.8 0C627.7 0 600.3 0 573 0C545.7 0 518.3 0 491 0C463.7 0 436.3 0 409 0C381.7 0 354.3 0 327 0C299.7 0 272.3 0 245.2 0C218 0 191 0 163.8 0C136.7 0 109.3 0 82 0C54.7 0 27.3 0 13.7 0L0 0Z" fill="#f4f4f4"></path><path d="M0 361L13.7 365C27.3 369 54.7 377 82 381C109.3 385 136.7 385 163.8 383C191 381 218 377 245.2 369C272.3 361 299.7 349 327 345C354.3 341 381.7 345 409 350C436.3 355 463.7 361 491 368C518.3 375 545.7 383 573 384C600.3 385 627.7 379 654.8 371C682 363 709 353 736.2 340C763.3 327 790.7 311 818 328C845.3 345 872.7 395 886.3 420L900 445L900 203L886.3 186C872.7 169 845.3 135 818 115C790.7 95 763.3 89 736.2 115C709 141 682 199 654.8 219C627.7 239 600.3 221 573 216C545.7 211 518.3 219 491 215C463.7 211 436.3 195 409 180C381.7 165 354.3 151 327 154C299.7 157 272.3 177 245.2 174C218 171 191 145 163.8 153C136.7 161 109.3 203 82 225C54.7 247 27.3 249 13.7 250L0 251Z" fill="#ffef9e"></path><path d="M0 439L13.7 447C27.3 455 54.7 471 82 472C109.3 473 136.7 459 163.8 448C191 437 218 429 245.2 437C272.3 445 299.7 469 327 474C354.3 479 381.7 465 409 466C436.3 467 463.7 483 491 488C518.3 493 545.7 487 573 474C600.3 461 627.7 441 654.8 430C682 419 709 417 736.2 421C763.3 425 790.7 435 818 450C845.3 465 872.7 485 886.3 495L900 505L900 443L886.3 418C872.7 393 845.3 343 818 326C790.7 309 763.3 325 736.2 338C709 351 682 361 654.8 369C627.7 377 600.3 383 573 382C545.7 381 518.3 373 491 366C463.7 359 436.3 353 409 348C381.7 343 354.3 339 327 343C299.7 347 272.3 359 245.2 367C218 375 191 379 163.8 381C136.7 383 109.3 383 82 379C54.7 375 27.3 367 13.7 363L0 359Z" fill="#ffed66"></path><path d="M0 541L13.7 541C27.3 541 54.7 541 82 536C109.3 531 136.7 521 163.8 509C191 497 218 483 245.2 486C272.3 489 299.7 509 327 513C354.3 517 381.7 505 409 507C436.3 509 463.7 525 491 530C518.3 535 545.7 529 573 523C600.3 517 627.7 511 654.8 503C682 495 709 485 736.2 490C763.3 495 790.7 515 818 526C845.3 537 872.7 539 886.3 540L900 541L900 503L886.3 493C872.7 483 845.3 463 818 448C790.7 433 763.3 423 736.2 419C709 415 682 417 654.8 428C627.7 439 600.3 459 573 472C545.7 485 518.3 491 491 486C463.7 481 436.3 465 409 464C381.7 463 354.3 477 327 472C299.7 467 272.3 443 245.2 435C218 427 191 435 163.8 446C136.7 457 109.3 471 82 470C54.7 469 27.3 453 13.7 445L0 437Z" fill="#ffef9e"></path><path d="M0 601L13.7 601C27.3 601 54.7 601 82 601C109.3 601 136.7 601 163.8 601C191 601 218 601 245.2 601C272.3 601 299.7 601 327 601C354.3 601 381.7 601 409 601C436.3 601 463.7 601 491 601C518.3 601 545.7 601 573 601C600.3 601 627.7 601 654.8 601C682 601 709 601 736.2 601C763.3 601 790.7 601 818 601C845.3 601 872.7 601 886.3 601L900 601L900 539L886.3 538C872.7 537 845.3 535 818 524C790.7 513 763.3 493 736.2 488C709 483 682 493 654.8 501C627.7 509 600.3 515 573 521C545.7 527 518.3 533 491 528C463.7 523 436.3 507 409 505C381.7 503 354.3 515 327 511C299.7 507 272.3 487 245.2 484C218 481 191 495 163.8 507C136.7 519 109.3 529 82 534C54.7 539 27.3 539 13.7 539L0 539Z" fill="#f4f4f4"></path></svg>