<svg id="visual" viewBox="0 0 900 600" width="900" height="600" xmlns="http://www.w3.org/2000/svg" xmlns:xlink="http://www.w3.org/1999/xlink" version="1.1"><path d="M0 67L13.7 63C27.3 59 54.7 51 82 52C109.3 53 136.7 63 163.8 65C191 67 218 61 245.2 68C272.3 75 299.7 95 327 106C354.3 117 381.7 119 409 119C436.3 119 463.7 117 491 115C518.3 113 545.7 111 573 109C600.3 107 627.7 105 654.8 103C682 101 709 99 736.2 104C763.3 109 790.7 121 818 118C845.3 115 872.7 97 886.3 88L900 79L900 0L886.3 0C872.7 0 845.3 0 818 0C790.7 0 763.3 0 736.2 0C709 0 682 0 654.8 0C627.7 0 600.3 0 573 0C545.7 0 518.3 0 491 0C463.7 0 436.3 0 409 0C381.7 0 354.3 0 327 0C299.7 0 272.3 0 245.2 0C218 0 191 0 163.8 0C136.7 0 109.3 0 82 0C54.7 0 27.3 0 13.7 0L0 0Z" fill="#ffffff"></path><path d="M0 283L13.7 286C27.3 289 54.7 295 82 293C109.3 291 136.7 281 163.8 271C191 261 218 251 245.2 263C272.3 275 299.7 309 327 317C354.3 325 381.7 307 409 296C436.3 285 463.7 281 491 284C518.3 287 545.7 297 573 293C600.3 289 627.7 271 654.8 267C682 263 709 273 736.2 278C763.3 283 790.7 283 818 270C845.3 257 872.7 231 886.3 218L900 205L900 77L886.3 86C872.7 95 845.3 113 818 116C790.7 119 763.3 107 736.2 102C709 97 682 99 654.8 101C627.7 103 600.3 105 573 107C545.7 109 518.3 111 491 113C463.7 115 436.3 117 409 117C381.7 117 354.3 115 327 104C299.7 93 272.3 73 245.2 66C218 59 191 65 163.8 63C136.7 61 109.3 51 82 50C54.7 49 27.3 57 13.7 61L0 65Z" fill="#ffdece"></path><path d="M0 373L13.7 381C27.3 389 54.7 405 82 414C109.3 423 136.7 425 163.8 412C191 399 218 371 245.2 370C272.3 369 299.7 395 327 395C354.3 395 381.7 369 409 366C436.3 363 463.7 383 491 389C518.3 395 545.7 387 573 378C600.3 369 627.7 359 654.8 356C682 353 709 357 736.2 357C763.3 357 790.7 353 818 347C845.3 341 872.7 333 886.3 329L900 325L900 203L886.3 216C872.7 229 845.3 255 818 268C790.7 281 763.3 281 736.2 276C709 271 682 261 654.8 265C627.7 269 600.3 287 573 291C545.7 295 518.3 285 491 282C463.7 279 436.3 283 409 294C381.7 305 354.3 323 327 315C299.7 307 272.3 273 245.2 261C218 249 191 259 163.8 269C136.7 279 109.3 289 82 291C54.7 293 27.3 287 13.7 284L0 281Z" fill="#ffbd9f"></path><path d="M0 547L13.7 549C27.3 551 54.7 555 82 548C109.3 541 136.7 523 163.8 522C191 521 218 537 245.2 543C272.3 549 299.7 545 327 537C354.3 529 381.7 517 409 512C436.3 507 463.7 509 491 508C518.3 507 545.7 503 573 503C600.3 503 627.7 507 654.8 511C682 515 709 519 736.2 528C763.3 537 790.7 551 818 557C845.3 563 872.7 561 886.3 560L900 559L900 323L886.3 327C872.7 331 845.3 339 818 345C790.7 351 763.3 355 736.2 355C709 355 682 351 654.8 354C627.7 357 600.3 367 573 376C545.7 385 518.3 393 491 387C463.7 381 436.3 361 409 364C381.7 367 354.3 393 327 393C299.7 393 272.3 367 245.2 368C218 369 191 397 163.8 410C136.7 423 109.3 421 82 412C54.7 403 27.3 387 13.7 379L0 371Z" fill="#f99c72"></path><path d="M0 601L13.7 601C27.3 601 54.7 601 82 601C109.3 601 136.7 601 163.8 601C191 601 218 601 245.2 601C272.3 601 299.7 601 327 601C354.3 601 381.7 601 409 601C436.3 601 463.7 601 491 601C518.3 601 545.7 601 573 601C600.3 601 627.7 601 654.8 601C682 601 709 601 736.2 601C763.3 601 790.7 601 818 601C845.3 601 872.7 601 886.3 601L900 601L900 557L886.3 558C872.7 559 845.3 561 818 555C790.7 549 763.3 535 736.2 526C709 517 682 513 654.8 509C627.7 505 600.3 501 573 501C545.7 501 518.3 505 491 506C463.7 507 436.3 505 409 510C381.7 515 354.3 527 327 535C299.7 543 272.3 547 245.2 541C218 535 191 519 163.8 520C136.7 521 109.3 539 82 546C54.7 553 27.3 549 13.7 547L0 545Z" fill="#ef7b45"></path></svg>