<svg id="visual" viewBox="0 0 960 540" width="960" height="540" xmlns="http://www.w3.org/2000/svg" xmlns:xlink="http://www.w3.org/1999/xlink" version="1.1"><path d="M0 82L14.5 79.3C29 76.7 58 71.3 87.2 69.5C116.3 67.7 145.7 69.3 174.8 67.5C204 65.7 233 60.3 262 63C291 65.7 320 76.3 349 72.7C378 69 407 51 436.2 52C465.3 53 494.7 73 523.8 80.3C553 87.7 582 82.3 611 72.3C640 62.3 669 47.7 698 47.7C727 47.7 756 62.3 785.2 63.3C814.3 64.3 843.7 51.7 872.8 49.8C902 48 931 57 945.5 61.5L960 66L960 0L945.5 0C931 0 902 0 872.8 0C843.7 0 814.3 0 785.2 0C756 0 727 0 698 0C669 0 640 0 611 0C582 0 553 0 523.8 0C494.7 0 465.3 0 436.2 0C407 0 378 0 349 0C320 0 291 0 262 0C233 0 204 0 174.8 0C145.7 0 116.3 0 87.2 0C58 0 29 0 14.5 0L0 0Z" fill="#ffffff"></path><path d="M0 120L14.5 121.8C29 123.7 58 127.3 87.2 130C116.3 132.7 145.7 134.3 174.8 128C204 121.7 233 107.3 262 110C291 112.7 320 132.3 349 140.3C378 148.3 407 144.7 436.2 145.7C465.3 146.7 494.7 152.3 523.8 152.3C553 152.3 582 146.7 611 144.8C640 143 669 145 698 140.5C727 136 756 125 785.2 113.3C814.3 101.7 843.7 89.3 872.8 96.7C902 104 931 131 945.5 144.5L960 158L960 64L945.5 59.5C931 55 902 46 872.8 47.8C843.7 49.7 814.3 62.3 785.2 61.3C756 60.3 727 45.7 698 45.7C669 45.7 640 60.3 611 70.3C582 80.3 553 85.7 523.8 78.3C494.7 71 465.3 51 436.2 50C407 49 378 67 349 70.7C320 74.3 291 63.7 262 61C233 58.3 204 63.7 174.8 65.5C145.7 67.3 116.3 65.7 87.2 67.5C58 69.3 29 74.7 14.5 77.3L0 80Z" fill="#fff8d5"></path><path d="M0 303L14.5 307.5C29 312 58 321 87.2 330C116.3 339 145.7 348 174.8 335.5C204 323 233 289 262 281.8C291 274.7 320 294.3 349 301.5C378 308.7 407 303.3 436.2 298C465.3 292.7 494.7 287.3 523.8 291C553 294.7 582 307.3 611 298.3C640 289.3 669 258.7 698 240.7C727 222.7 756 217.3 785.2 227.2C814.3 237 843.7 262 872.8 271C902 280 931 273 945.5 269.5L960 266L960 156L945.5 142.5C931 129 902 102 872.8 94.7C843.7 87.3 814.3 99.7 785.2 111.3C756 123 727 134 698 138.5C669 143 640 141 611 142.8C582 144.7 553 150.3 523.8 150.3C494.7 150.3 465.3 144.7 436.2 143.7C407 142.7 378 146.3 349 138.3C320 130.3 291 110.7 262 108C233 105.3 204 119.7 174.8 126C145.7 132.3 116.3 130.7 87.2 128C58 125.3 29 121.7 14.5 119.8L0 118Z" fill="#fff1aa"></path><path d="M0 417L14.5 429.5C29 442 58 467 87.2 474.2C116.3 481.3 145.7 470.7 174.8 464.5C204 458.3 233 456.7 262 461.2C291 465.7 320 476.3 349 472.7C378 469 407 451 436.2 447.3C465.3 443.7 494.7 454.3 523.8 450.7C553 447 582 429 611 418.3C640 407.7 669 404.3 698 413.3C727 422.3 756 443.7 785.2 446.3C814.3 449 843.7 433 872.8 432.2C902 431.3 931 445.7 945.5 452.8L960 460L960 264L945.5 267.5C931 271 902 278 872.8 269C843.7 260 814.3 235 785.2 225.2C756 215.3 727 220.7 698 238.7C669 256.7 640 287.3 611 296.3C582 305.3 553 292.7 523.8 289C494.7 285.3 465.3 290.7 436.2 296C407 301.3 378 306.7 349 299.5C320 292.3 291 272.7 262 279.8C233 287 204 321 174.8 333.5C145.7 346 116.3 337 87.2 328C58 319 29 310 14.5 305.5L0 301Z" fill="#ffeb7e"></path><path d="M0 541L14.5 541C29 541 58 541 87.2 541C116.3 541 145.7 541 174.8 541C204 541 233 541 262 541C291 541 320 541 349 541C378 541 407 541 436.2 541C465.3 541 494.7 541 523.8 541C553 541 582 541 611 541C640 541 669 541 698 541C727 541 756 541 785.2 541C814.3 541 843.7 541 872.8 541C902 541 931 541 945.5 541L960 541L960 458L945.5 450.8C931 443.7 902 429.3 872.8 430.2C843.7 431 814.3 447 785.2 444.3C756 441.7 727 420.3 698 411.3C669 402.3 640 405.7 611 416.3C582 427 553 445 523.8 448.7C494.7 452.3 465.3 441.7 436.2 445.3C407 449 378 467 349 470.7C320 474.3 291 463.7 262 459.2C233 454.7 204 456.3 174.8 462.5C145.7 468.7 116.3 479.3 87.2 472.2C58 465 29 440 14.5 427.5L0 415Z" fill="#ffe44d"></path></svg>