<svg id="visual" viewBox="0 0 900 600" width="900" height="600" xmlns="http://www.w3.org/2000/svg" xmlns:xlink="http://www.w3.org/1999/xlink" version="1.1"><path d="M0 247L13.7 221C27.3 195 54.7 143 82 116C109.3 89 136.7 87 163.8 94C191 101 218 117 245.2 137C272.3 157 299.7 181 327 192C354.3 203 381.7 201 409 196C436.3 191 463.7 183 491 201C518.3 219 545.7 263 573 279C600.3 295 627.7 283 654.8 281C682 279 709 287 736.2 291C763.3 295 790.7 295 818 279C845.3 263 872.7 231 886.3 215L900 199L900 0L886.3 0C872.7 0 845.3 0 818 0C790.7 0 763.3 0 736.2 0C709 0 682 0 654.8 0C627.7 0 600.3 0 573 0C545.7 0 518.3 0 491 0C463.7 0 436.3 0 409 0C381.7 0 354.3 0 327 0C299.7 0 272.3 0 245.2 0C218 0 191 0 163.8 0C136.7 0 109.3 0 82 0C54.7 0 27.3 0 13.7 0L0 0Z" fill="#f4f4f4"></path><path d="M0 403L13.7 398C27.3 393 54.7 383 82 373C109.3 363 136.7 353 163.8 347C191 341 218 339 245.2 346C272.3 353 299.7 369 327 364C354.3 359 381.7 333 409 334C436.3 335 463.7 363 491 384C518.3 405 545.7 419 573 419C600.3 419 627.7 405 654.8 402C682 399 709 407 736.2 413C763.3 419 790.7 423 818 415C845.3 407 872.7 387 886.3 377L900 367L900 197L886.3 213C872.7 229 845.3 261 818 277C790.7 293 763.3 293 736.2 289C709 285 682 277 654.8 279C627.7 281 600.3 293 573 277C545.7 261 518.3 217 491 199C463.7 181 436.3 189 409 194C381.7 199 354.3 201 327 190C299.7 179 272.3 155 245.2 135C218 115 191 99 163.8 92C136.7 85 109.3 87 82 114C54.7 141 27.3 193 13.7 219L0 245Z" fill="#fec5bf"></path><path d="M0 493L13.7 490C27.3 487 54.7 481 82 473C109.3 465 136.7 455 163.8 450C191 445 218 445 245.2 447C272.3 449 299.7 453 327 451C354.3 449 381.7 441 409 449C436.3 457 463.7 481 491 492C518.3 503 545.7 501 573 492C600.3 483 627.7 467 654.8 465C682 463 709 475 736.2 484C763.3 493 790.7 499 818 503C845.3 507 872.7 509 886.3 510L900 511L900 365L886.3 375C872.7 385 845.3 405 818 413C790.7 421 763.3 417 736.2 411C709 405 682 397 654.8 400C627.7 403 600.3 417 573 417C545.7 417 518.3 403 491 382C463.7 361 436.3 333 409 332C381.7 331 354.3 357 327 362C299.7 367 272.3 351 245.2 344C218 337 191 339 163.8 345C136.7 351 109.3 361 82 371C54.7 381 27.3 391 13.7 396L0 401Z" fill="#ff958c"></path><path d="M0 601L13.7 601C27.3 601 54.7 601 82 601C109.3 601 136.7 601 163.8 601C191 601 218 601 245.2 601C272.3 601 299.7 601 327 601C354.3 601 381.7 601 409 601C436.3 601 463.7 601 491 601C518.3 601 545.7 601 573 601C600.3 601 627.7 601 654.8 601C682 601 709 601 736.2 601C763.3 601 790.7 601 818 601C845.3 601 872.7 601 886.3 601L900 601L900 509L886.3 508C872.7 507 845.3 505 818 501C790.7 497 763.3 491 736.2 482C709 473 682 461 654.8 463C627.7 465 600.3 481 573 490C545.7 499 518.3 501 491 490C463.7 479 436.3 455 409 447C381.7 439 354.3 447 327 449C299.7 451 272.3 447 245.2 445C218 443 191 443 163.8 448C136.7 453 109.3 463 82 471C54.7 479 27.3 485 13.7 488L0 491Z" fill="#ff5e5b"></path></svg>