<svg id="visual" viewBox="0 0 900 600" width="900" height="600" xmlns="http://www.w3.org/2000/svg" xmlns:xlink="http://www.w3.org/1999/xlink" version="1.1"><path d="M0 133L13.7 129C27.3 125 54.7 117 82 112C109.3 107 136.7 105 163.8 116C191 127 218 151 245.2 156C272.3 161 299.7 147 327 166C354.3 185 381.7 237 409 229C436.3 221 463.7 153 491 127C518.3 101 545.7 117 573 140C600.3 163 627.7 193 654.8 210C682 227 709 231 736.2 231C763.3 231 790.7 227 818 207C845.3 187 872.7 151 886.3 133L900 115L900 0L886.3 0C872.7 0 845.3 0 818 0C790.7 0 763.3 0 736.2 0C709 0 682 0 654.8 0C627.7 0 600.3 0 573 0C545.7 0 518.3 0 491 0C463.7 0 436.3 0 409 0C381.7 0 354.3 0 327 0C299.7 0 272.3 0 245.2 0C218 0 191 0 163.8 0C136.7 0 109.3 0 82 0C54.7 0 27.3 0 13.7 0L0 0Z" fill="#ffffff"></path><path d="M0 379L13.7 377C27.3 375 54.7 371 82 371C109.3 371 136.7 375 163.8 357C191 339 218 299 245.2 282C272.3 265 299.7 271 327 292C354.3 313 381.7 349 409 353C436.3 357 463.7 329 491 321C518.3 313 545.7 325 573 344C600.3 363 627.7 389 654.8 387C682 385 709 355 736.2 352C763.3 349 790.7 373 818 377C845.3 381 872.7 365 886.3 357L900 349L900 113L886.3 131C872.7 149 845.3 185 818 205C790.7 225 763.3 229 736.2 229C709 229 682 225 654.8 208C627.7 191 600.3 161 573 138C545.7 115 518.3 99 491 125C463.7 151 436.3 219 409 227C381.7 235 354.3 183 327 164C299.7 145 272.3 159 245.2 154C218 149 191 125 163.8 114C136.7 103 109.3 105 82 110C54.7 115 27.3 123 13.7 127L0 131Z" fill="#f1fcee"></path><path d="M0 457L13.7 463C27.3 469 54.7 481 82 486C109.3 491 136.7 489 163.8 473C191 457 218 427 245.2 417C272.3 407 299.7 417 327 432C354.3 447 381.7 467 409 467C436.3 467 463.7 447 491 448C518.3 449 545.7 471 573 479C600.3 487 627.7 481 654.8 473C682 465 709 455 736.2 463C763.3 471 790.7 497 818 492C845.3 487 872.7 451 886.3 433L900 415L900 347L886.3 355C872.7 363 845.3 379 818 375C790.7 371 763.3 347 736.2 350C709 353 682 383 654.8 385C627.7 387 600.3 361 573 342C545.7 323 518.3 311 491 319C463.7 327 436.3 355 409 351C381.7 347 354.3 311 327 290C299.7 269 272.3 263 245.2 280C218 297 191 337 163.8 355C136.7 373 109.3 369 82 369C54.7 369 27.3 373 13.7 375L0 377Z" fill="#e2f8de"></path><path d="M0 559L13.7 556C27.3 553 54.7 547 82 543C109.3 539 136.7 537 163.8 527C191 517 218 499 245.2 492C272.3 485 299.7 489 327 499C354.3 509 381.7 525 409 524C436.3 523 463.7 505 491 503C518.3 501 545.7 515 573 526C600.3 537 627.7 545 654.8 547C682 549 709 545 736.2 546C763.3 547 790.7 553 818 548C845.3 543 872.7 527 886.3 519L900 511L900 413L886.3 431C872.7 449 845.3 485 818 490C790.7 495 763.3 469 736.2 461C709 453 682 463 654.8 471C627.7 479 600.3 485 573 477C545.7 469 518.3 447 491 446C463.7 445 436.3 465 409 465C381.7 465 354.3 445 327 430C299.7 415 272.3 405 245.2 415C218 425 191 455 163.8 471C136.7 487 109.3 489 82 484C54.7 479 27.3 467 13.7 461L0 455Z" fill="#d3f5ce"></path><path d="M0 601L13.7 601C27.3 601 54.7 601 82 601C109.3 601 136.7 601 163.8 601C191 601 218 601 245.2 601C272.3 601 299.7 601 327 601C354.3 601 381.7 601 409 601C436.3 601 463.7 601 491 601C518.3 601 545.7 601 573 601C600.3 601 627.7 601 654.8 601C682 601 709 601 736.2 601C763.3 601 790.7 601 818 601C845.3 601 872.7 601 886.3 601L900 601L900 509L886.3 517C872.7 525 845.3 541 818 546C790.7 551 763.3 545 736.2 544C709 543 682 547 654.8 545C627.7 543 600.3 535 573 524C545.7 513 518.3 499 491 501C463.7 503 436.3 521 409 522C381.7 523 354.3 507 327 497C299.7 487 272.3 483 245.2 490C218 497 191 515 163.8 525C136.7 535 109.3 537 82 541C54.7 545 27.3 551 13.7 554L0 557Z" fill="#c4f1be"></path></svg>