<svg id="visual" viewBox="0 0 100% 100vh" width="900" height="600" xmlns="http://www.w3.org/2000/svg" xmlns:xlink="http://www.w3.org/1999/xlink" version="1.1"><path d="M0 199L13.7 192C27.3 185 54.7 171 82 168C109.3 165 136.7 173 163.8 187C191 201 218 221 245.2 216C272.3 211 299.7 181 327 189C354.3 197 381.7 243 409 247C436.3 251 463.7 213 491 195C518.3 177 545.7 179 573 197C600.3 215 627.7 249 654.8 235C682 221 709 159 736.2 136C763.3 113 790.7 129 818 148C845.3 167 872.7 189 886.3 200L900 211L900 0L886.3 0C872.7 0 845.3 0 818 0C790.7 0 763.3 0 736.2 0C709 0 682 0 654.8 0C627.7 0 600.3 0 573 0C545.7 0 518.3 0 491 0C463.7 0 436.3 0 409 0C381.7 0 354.3 0 327 0C299.7 0 272.3 0 245.2 0C218 0 191 0 163.8 0C136.7 0 109.3 0 82 0C54.7 0 27.3 0 13.7 0L0 0Z" fill="#94c9d2"></path><path d="M0 343L13.7 338C27.3 333 54.7 323 82 317C109.3 311 136.7 309 163.8 310C191 311 218 315 245.2 333C272.3 351 299.7 383 327 394C354.3 405 381.7 395 409 391C436.3 387 463.7 389 491 380C518.3 371 545.7 351 573 348C600.3 345 627.7 359 654.8 351C682 343 709 313 736.2 305C763.3 297 790.7 311 818 320C845.3 329 872.7 333 886.3 335L900 337L900 209L886.3 198C872.7 187 845.3 165 818 146C790.7 127 763.3 111 736.2 134C709 157 682 219 654.8 233C627.7 247 600.3 213 573 195C545.7 177 518.3 175 491 193C463.7 211 436.3 249 409 245C381.7 241 354.3 195 327 187C299.7 179 272.3 209 245.2 214C218 219 191 199 163.8 185C136.7 171 109.3 163 82 166C54.7 169 27.3 183 13.7 190L0 197Z" fill="#7abdc8"></path><path d="M0 427L13.7 418C27.3 409 54.7 391 82 381C109.3 371 136.7 369 163.8 366C191 363 218 359 245.2 374C272.3 389 299.7 423 327 443C354.3 463 381.7 469 409 466C436.3 463 463.7 451 491 434C518.3 417 545.7 395 573 397C600.3 399 627.7 425 654.8 426C682 427 709 403 736.2 390C763.3 377 790.7 375 818 375C845.3 375 872.7 377 886.3 378L900 379L900 335L886.3 333C872.7 331 845.3 327 818 318C790.7 309 763.3 295 736.2 303C709 311 682 341 654.8 349C627.7 357 600.3 343 573 346C545.7 349 518.3 369 491 378C463.7 387 436.3 385 409 389C381.7 393 354.3 403 327 392C299.7 381 272.3 349 245.2 331C218 313 191 309 163.8 308C136.7 307 109.3 309 82 315C54.7 321 27.3 331 13.7 336L0 341Z" fill="#5eb1bf"></path><path d="M0 499L13.7 495C27.3 491 54.7 483 82 490C109.3 497 136.7 519 163.8 525C191 531 218 521 245.2 518C272.3 515 299.7 519 327 526C354.3 533 381.7 543 409 543C436.3 543 463.7 533 491 522C518.3 511 545.7 499 573 502C600.3 505 627.7 523 654.8 530C682 537 709 533 736.2 528C763.3 523 790.7 517 818 508C845.3 499 872.7 487 886.3 481L900 475L900 377L886.3 376C872.7 375 845.3 373 818 373C790.7 373 763.3 375 736.2 388C709 401 682 425 654.8 424C627.7 423 600.3 397 573 395C545.7 393 518.3 415 491 432C463.7 449 436.3 461 409 464C381.7 467 354.3 461 327 441C299.7 421 272.3 387 245.2 372C218 357 191 361 163.8 364C136.7 367 109.3 369 82 379C54.7 389 27.3 407 13.7 416L0 425Z" fill="#519aa6"></path><path d="M0 601L13.7 601C27.3 601 54.7 601 82 601C109.3 601 136.7 601 163.8 601C191 601 218 601 245.2 601C272.3 601 299.7 601 327 601C354.3 601 381.7 601 409 601C436.3 601 463.7 601 491 601C518.3 601 545.7 601 573 601C600.3 601 627.7 601 654.8 601C682 601 709 601 736.2 601C763.3 601 790.7 601 818 601C845.3 601 872.7 601 886.3 601L900 601L900 473L886.3 479C872.7 485 845.3 497 818 506C790.7 515 763.3 521 736.2 526C709 531 682 535 654.8 528C627.7 521 600.3 503 573 500C545.7 497 518.3 509 491 520C463.7 531 436.3 541 409 541C381.7 541 354.3 531 327 524C299.7 517 272.3 513 245.2 516C218 519 191 529 163.8 523C136.7 517 109.3 495 82 488C54.7 481 27.3 489 13.7 493L0 497Z" fill="#44838d"></path></svg>