<svg id="visual" viewBox="0 0 900 600" width="900" height="600" xmlns="http://www.w3.org/2000/svg" xmlns:xlink="http://www.w3.org/1999/xlink" version="1.1"><path d="M0 121L13.7 120C27.3 119 54.7 117 82 132C109.3 147 136.7 179 163.8 191C191 203 218 195 245.2 200C272.3 205 299.7 223 327 211C354.3 199 381.7 157 409 164C436.3 171 463.7 227 491 245C518.3 263 545.7 243 573 214C600.3 185 627.7 147 654.8 156C682 165 709 221 736.2 232C763.3 243 790.7 209 818 206C845.3 203 872.7 231 886.3 245L900 259L900 0L886.3 0C872.7 0 845.3 0 818 0C790.7 0 763.3 0 736.2 0C709 0 682 0 654.8 0C627.7 0 600.3 0 573 0C545.7 0 518.3 0 491 0C463.7 0 436.3 0 409 0C381.7 0 354.3 0 327 0C299.7 0 272.3 0 245.2 0C218 0 191 0 163.8 0C136.7 0 109.3 0 82 0C54.7 0 27.3 0 13.7 0L0 0Z" fill="#f4f4f4"></path><path d="M0 385L13.7 387C27.3 389 54.7 393 82 396C109.3 399 136.7 401 163.8 403C191 405 218 407 245.2 398C272.3 389 299.7 369 327 364C354.3 359 381.7 369 409 381C436.3 393 463.7 407 491 399C518.3 391 545.7 361 573 342C600.3 323 627.7 315 654.8 321C682 327 709 347 736.2 351C763.3 355 790.7 343 818 340C845.3 337 872.7 343 886.3 346L900 349L900 257L886.3 243C872.7 229 845.3 201 818 204C790.7 207 763.3 241 736.2 230C709 219 682 163 654.8 154C627.7 145 600.3 183 573 212C545.7 241 518.3 261 491 243C463.7 225 436.3 169 409 162C381.7 155 354.3 197 327 209C299.7 221 272.3 203 245.2 198C218 193 191 201 163.8 189C136.7 177 109.3 145 82 130C54.7 115 27.3 117 13.7 118L0 119Z" fill="#ebebeb"></path><path d="M0 523L13.7 523C27.3 523 54.7 523 82 512C109.3 501 136.7 479 163.8 471C191 463 218 469 245.2 475C272.3 481 299.7 487 327 497C354.3 507 381.7 521 409 522C436.3 523 463.7 511 491 498C518.3 485 545.7 471 573 465C600.3 459 627.7 461 654.8 476C682 491 709 519 736.2 520C763.3 521 790.7 495 818 482C845.3 469 872.7 469 886.3 469L900 469L900 347L886.3 344C872.7 341 845.3 335 818 338C790.7 341 763.3 353 736.2 349C709 345 682 325 654.8 319C627.7 313 600.3 321 573 340C545.7 359 518.3 389 491 397C463.7 405 436.3 391 409 379C381.7 367 354.3 357 327 362C299.7 367 272.3 387 245.2 396C218 405 191 403 163.8 401C136.7 399 109.3 397 82 394C54.7 391 27.3 387 13.7 385L0 383Z" fill="#e1e1e1"></path><path d="M0 601L13.7 601C27.3 601 54.7 601 82 601C109.3 601 136.7 601 163.8 601C191 601 218 601 245.2 601C272.3 601 299.7 601 327 601C354.3 601 381.7 601 409 601C436.3 601 463.7 601 491 601C518.3 601 545.7 601 573 601C600.3 601 627.7 601 654.8 601C682 601 709 601 736.2 601C763.3 601 790.7 601 818 601C845.3 601 872.7 601 886.3 601L900 601L900 467L886.3 467C872.7 467 845.3 467 818 480C790.7 493 763.3 519 736.2 518C709 517 682 489 654.8 474C627.7 459 600.3 457 573 463C545.7 469 518.3 483 491 496C463.7 509 436.3 521 409 520C381.7 519 354.3 505 327 495C299.7 485 272.3 479 245.2 473C218 467 191 461 163.8 469C136.7 477 109.3 499 82 510C54.7 521 27.3 521 13.7 521L0 521Z" fill="#d8d8d8"></path></svg>