<svg id="visual" viewBox="0 0 100% 100vh" width="1024" height="600" xmlns="http://www.w3.org/2000/svg" xmlns:xlink="http://www.w3.org/1999/xlink" version="1.1"><path d="M0 43L19 46C38 49 76 55 114 57C152 59 190 57 227.8 71C265.7 85 303.3 115 341.2 112C379 109 417 73 455 72C493 71 531 105 569 120C607 135 645 131 682.8 127C720.7 123 758.3 119 796.2 105C834 91 872 67 910 61C948 55 986 67 1005 73L1024 79L1024 0L1005 0C986 0 948 0 910 0C872 0 834 0 796.2 0C758.3 0 720.7 0 682.8 0C645 0 607 0 569 0C531 0 493 0 455 0C417 0 379 0 341.2 0C303.3 0 265.7 0 227.8 0C190 0 152 0 114 0C76 0 38 0 19 0L0 0Z" fill="#0066ff"></path><path d="M0 97L19 103C38 109 76 121 114 123C152 125 190 117 227.8 121C265.7 125 303.3 141 341.2 138C379 135 417 113 455 120C493 127 531 163 569 178C607 193 645 187 682.8 185C720.7 183 758.3 185 796.2 164C834 143 872 99 910 86C948 73 986 91 1005 100L1024 109L1024 77L1005 71C986 65 948 53 910 59C872 65 834 89 796.2 103C758.3 117 720.7 121 682.8 125C645 129 607 133 569 118C531 103 493 69 455 70C417 71 379 107 341.2 110C303.3 113 265.7 83 227.8 69C190 55 152 57 114 55C76 53 38 47 19 44L0 41Z" fill="#0084ff"></path><path d="M0 163L19 162C38 161 76 159 114 151C152 143 190 129 227.8 137C265.7 145 303.3 175 341.2 181C379 187 417 169 455 172C493 175 531 199 569 206C607 213 645 203 682.8 205C720.7 207 758.3 221 796.2 204C834 187 872 139 910 129C948 119 986 147 1005 161L1024 175L1024 107L1005 98C986 89 948 71 910 84C872 97 834 141 796.2 162C758.3 183 720.7 181 682.8 183C645 185 607 191 569 176C531 161 493 125 455 118C417 111 379 133 341.2 136C303.3 139 265.7 123 227.8 119C190 115 152 123 114 121C76 119 38 107 19 101L0 95Z" fill="#009bfd"></path><path d="M0 283L19 299C38 315 76 347 114 366C152 385 190 391 227.8 389C265.7 387 303.3 377 341.2 386C379 395 417 423 455 412C493 401 531 351 569 334C607 317 645 333 682.8 328C720.7 323 758.3 297 796.2 272C834 247 872 223 910 219C948 215 986 231 1005 239L1024 247L1024 173L1005 159C986 145 948 117 910 127C872 137 834 185 796.2 202C758.3 219 720.7 205 682.8 203C645 201 607 211 569 204C531 197 493 173 455 170C417 167 379 185 341.2 179C303.3 173 265.7 143 227.8 135C190 127 152 141 114 149C76 157 38 159 19 160L0 161Z" fill="#00aff0"></path><path d="M0 433L19 437C38 441 76 449 114 451C152 453 190 449 227.8 439C265.7 429 303.3 413 341.2 419C379 425 417 453 455 455C493 457 531 433 569 424C607 415 645 421 682.8 421C720.7 421 758.3 415 796.2 414C834 413 872 417 910 416C948 415 986 409 1005 406L1024 403L1024 245L1005 237C986 229 948 213 910 217C872 221 834 245 796.2 270C758.3 295 720.7 321 682.8 326C645 331 607 315 569 332C531 349 493 399 455 410C417 421 379 393 341.2 384C303.3 375 265.7 385 227.8 387C190 389 152 383 114 364C76 345 38 313 19 297L0 281Z" fill="#00bfe4"></path><path d="M0 469L19 477C38 485 76 501 114 505C152 509 190 501 227.8 482C265.7 463 303.3 433 341.2 437C379 441 417 479 455 487C493 495 531 473 569 469C607 465 645 479 682.8 476C720.7 473 758.3 453 796.2 447C834 441 872 449 910 448C948 447 986 437 1005 432L1024 427L1024 401L1005 404C986 407 948 413 910 414C872 415 834 411 796.2 412C758.3 413 720.7 419 682.8 419C645 419 607 413 569 422C531 431 493 455 455 453C417 451 379 423 341.2 417C303.3 411 265.7 427 227.8 437C190 447 152 451 114 449C76 447 38 439 19 435L0 431Z" fill="#00ccd0"></path><path d="M0 529L19 533C38 537 76 545 114 552C152 559 190 565 227.8 557C265.7 549 303.3 527 341.2 520C379 513 417 521 455 524C493 527 531 525 569 530C607 535 645 547 682.8 548C720.7 549 758.3 539 796.2 532C834 525 872 521 910 516C948 511 986 505 1005 502L1024 499L1024 425L1005 430C986 435 948 445 910 446C872 447 834 439 796.2 445C758.3 451 720.7 471 682.8 474C645 477 607 463 569 467C531 471 493 493 455 485C417 477 379 439 341.2 435C303.3 431 265.7 461 227.8 480C190 499 152 507 114 503C76 499 38 483 19 475L0 467Z" fill="#46d5b2"></path><path d="M0 601L19 601C38 601 76 601 114 601C152 601 190 601 227.8 601C265.7 601 303.3 601 341.2 601C379 601 417 601 455 601C493 601 531 601 569 601C607 601 645 601 682.8 601C720.7 601 758.3 601 796.2 601C834 601 872 601 910 601C948 601 986 601 1005 601L1024 601L1024 497L1005 500C986 503 948 509 910 514C872 519 834 523 796.2 530C758.3 537 720.7 547 682.8 546C645 545 607 533 569 528C531 523 493 525 455 522C417 519 379 511 341.2 518C303.3 525 265.7 547 227.8 555C190 563 152 557 114 550C76 543 38 535 19 531L0 527Z" fill="#88db92"></path></svg>