<svg id="visual" viewBox="0 0 100% 100vh" width="540" height="960" xmlns="http://www.w3.org/2000/svg" xmlns:xlink="http://www.w3.org/1999/xlink" version="1.1"><path d="M0 39L18 42.3C36 45.7 72 52.3 108 50.8C144 49.3 180 39.7 216 36.3C252 33 288 36 324 34.3C360 32.7 396 26.3 432 24.8C468 23.3 504 26.7 522 28.3L540 30L540 0L522 0C504 0 468 0 432 0C396 0 360 0 324 0C288 0 252 0 216 0C180 0 144 0 108 0C72 0 36 0 18 0L0 0Z" fill="#ffffff"></path><path d="M0 174L18 174C36 174 72 174 108 172.3C144 170.7 180 167.3 216 160.8C252 154.3 288 144.7 324 138.3C360 132 396 129 432 117.8C468 106.7 504 87.3 522 77.7L540 68L540 28L522 26.3C504 24.7 468 21.3 432 22.8C396 24.3 360 30.7 324 32.3C288 34 252 31 216 34.3C180 37.7 144 47.3 108 48.8C72 50.3 36 43.7 18 40.3L0 37Z" fill="#fff0e9"></path><path d="M0 510L18 466.8C36 423.7 72 337.3 108 305.3C144 273.3 180 295.7 216 322.8C252 350 288 382 324 391.5C360 401 396 388 432 367.2C468 346.3 504 317.7 522 303.3L540 289L540 66L522 75.7C504 85.3 468 104.7 432 115.8C396 127 360 130 324 136.3C288 142.7 252 152.3 216 158.8C180 165.3 144 168.7 108 170.3C72 172 36 172 18 172L0 172Z" fill="#ffe2d4"></path><path d="M0 673L18 645.8C36 618.7 72 564.3 108 543.5C144 522.7 180 535.3 216 536.8C252 538.3 288 528.7 324 512.7C360 496.7 396 474.3 432 485.7C468 497 504 542 522 564.5L540 587L540 287L522 301.3C504 315.7 468 344.3 432 365.2C396 386 360 399 324 389.5C288 380 252 348 216 320.8C180 293.7 144 271.3 108 303.3C72 335.3 36 421.7 18 464.8L0 508Z" fill="#ffd3be"></path><path d="M0 731L18 721.3C36 711.7 72 692.3 108 671.5C144 650.7 180 628.3 216 620.3C252 612.3 288 618.7 324 613.8C360 609 396 593 432 601C468 609 504 641 522 657L540 673L540 585L522 562.5C504 540 468 495 432 483.7C396 472.3 360 494.7 324 510.7C288 526.7 252 536.3 216 534.8C180 533.3 144 520.7 108 541.5C72 562.3 36 616.7 18 643.8L0 671Z" fill="#ffc4a9"></path><path d="M0 788L18 775.2C36 762.3 72 736.7 108 712.7C144 688.7 180 666.3 216 658.3C252 650.3 288 656.7 324 656.7C360 656.7 396 650.3 432 658.3C468 666.3 504 688.7 522 699.8L540 711L540 671L522 655C504 639 468 607 432 599C396 591 360 607 324 611.8C288 616.7 252 610.3 216 618.3C180 626.3 144 648.7 108 669.5C72 690.3 36 709.7 18 719.3L0 729Z" fill="#feb695"></path><path d="M0 817L18 810.7C36 804.3 72 791.7 108 780.5C144 769.3 180 759.7 216 761.2C252 762.7 288 775.3 324 776.8C360 778.3 396 768.7 432 763.8C468 759 504 759 522 759L540 759L540 709L522 697.8C504 686.7 468 664.3 432 656.3C396 648.3 360 654.7 324 654.7C288 654.7 252 648.3 216 656.3C180 664.3 144 686.7 108 710.7C72 734.7 36 760.3 18 773.2L0 786Z" fill="#fba781"></path><path d="M0 836L18 839.2C36 842.3 72 848.7 108 850.3C144 852 180 849 216 841C252 833 288 820 324 821.5C360 823 396 839 432 840.7C468 842.3 504 829.7 522 823.3L540 817L540 757L522 757C504 757 468 757 432 761.8C396 766.7 360 776.3 324 774.8C288 773.3 252 760.7 216 759.2C180 757.7 144 767.3 108 778.5C72 789.7 36 802.3 18 808.7L0 815Z" fill="#f8996d"></path><path d="M0 913L18 906.7C36 900.3 72 887.7 108 884.5C144 881.3 180 887.7 216 889.2C252 890.7 288 887.3 324 885.7C360 884 396 884 432 880.8C468 877.7 504 871.3 522 868.2L540 865L540 815L522 821.3C504 827.7 468 840.3 432 838.7C396 837 360 821 324 819.5C288 818 252 831 216 839C180 847 144 850 108 848.3C72 846.7 36 840.3 18 837.2L0 834Z" fill="#f48a59"></path><path d="M0 961L18 961C36 961 72 961 108 961C144 961 180 961 216 961C252 961 288 961 324 961C360 961 396 961 432 961C468 961 504 961 522 961L540 961L540 863L522 866.2C504 869.3 468 875.7 432 878.8C396 882 360 882 324 883.7C288 885.3 252 888.7 216 887.2C180 885.7 144 879.3 108 882.5C72 885.7 36 898.3 18 904.7L0 911Z" fill="#f9c242"></path></svg>