<svg id="visual" viewBox="0 0 900 600" xmlns="http://www.w3.org/2000/svg" xmlns:xlink="http://www.w3.org/1999/xlink" version="1.1"><rect x="0" y="0" width="900" height="600" fill="#002233"></rect><path d="M0 400L9.3 409.3C18.7 418.7 37.3 437.3 56.2 454.2C75 471 94 486 112.8 484.8C131.7 483.7 150.3 466.3 169 450.8C187.7 435.3 206.3 421.7 225 429C243.7 436.3 262.3 464.7 281.2 465.7C300 466.7 319 440.3 337.8 445.3C356.7 450.3 375.3 486.7 394 484.8C412.7 483 431.3 443 450 432.7C468.7 422.3 487.3 441.7 506.2 443.5C525 445.3 544 429.7 562.8 431.2C581.7 432.7 600.3 451.3 619 458.5C637.7 465.7 656.3 461.3 675 445.5C693.7 429.7 712.3 402.3 731.2 402.7C750 403 769 431 787.8 454.7C806.7 478.3 825.3 497.7 844 507.2C862.7 516.7 881.3 516.3 890.7 516.2L900 516L900 601L890.7 601C881.3 601 862.7 601 844 601C825.3 601 806.7 601 787.8 601C769 601 750 601 731.2 601C712.3 601 693.7 601 675 601C656.3 601 637.7 601 619 601C600.3 601 581.7 601 562.8 601C544 601 525 601 506.2 601C487.3 601 468.7 601 450 601C431.3 601 412.7 601 394 601C375.3 601 356.7 601 337.8 601C319 601 300 601 281.2 601C262.3 601 243.7 601 225 601C206.3 601 187.7 601 169 601C150.3 601 131.7 601 112.8 601C94 601 75 601 56.2 601C37.3 601 18.7 601 9.3 601L0 601Z" fill="#0066FF" stroke-linecap="round" stroke-linejoin="miter"></path></svg>