<svg id="visual" viewBox="0 0 540 960" width="540" height="960" xmlns="http://www.w3.org/2000/svg" xmlns:xlink="http://www.w3.org/1999/xlink" version="1.1"><rect x="0" y="0" width="540" height="960" fill="#002233"></rect><path d="M110 0L110.3 22.8C110.7 45.7 111.3 91.3 115 137C118.7 182.7 125.3 228.3 120.3 274C115.3 319.7 98.7 365.3 98.5 411.2C98.3 457 114.7 503 123 548.8C131.3 594.7 131.7 640.3 128.7 686C125.7 731.7 119.3 777.3 117.2 823C115 868.7 117 914.3 118 937.2L119 960L0 960L0 937.2C0 914.3 0 868.7 0 823C0 777.3 0 731.7 0 686C0 640.3 0 594.7 0 548.8C0 503 0 457 0 411.2C0 365.3 0 319.7 0 274C0 228.3 0 182.7 0 137C0 91.3 0 45.7 0 22.8L0 0Z" fill="#0066FF" stroke-linecap="round" stroke-linejoin="miter"></path></svg>