<svg id="visual" viewBox="0 0 0 0"  xmlns="http://www.w3.org/2000/svg" xmlns:xlink="http://www.w3.org/1999/xlink" version="1.1"><rect x="0" y="0" width="900" height="600" fill="#002233"></rect><path d="M0 439L10.7 430.5C21.3 422 42.7 405 64.2 412.3C85.7 419.7 107.3 451.3 128.8 454.7C150.3 458 171.7 433 193 415.7C214.3 398.3 235.7 388.7 257 383.8C278.3 379 299.7 379 321.2 395.2C342.7 411.3 364.3 443.7 385.8 453.2C407.3 462.7 428.7 449.3 450 453C471.3 456.7 492.7 477.3 514.2 481C535.7 484.7 557.3 471.3 578.8 459.8C600.3 448.3 621.7 438.7 643 441C664.3 443.3 685.7 457.7 707 471C728.3 484.3 749.7 496.7 771.2 501.5C792.7 506.3 814.3 503.7 835.8 501C857.3 498.3 878.7 495.7 889.3 494.3L900 493L900 601L889.3 601C878.7 601 857.3 601 835.8 601C814.3 601 792.7 601 771.2 601C749.7 601 728.3 601 707 601C685.7 601 664.3 601 643 601C621.7 601 600.3 601 578.8 601C557.3 601 535.7 601 514.2 601C492.7 601 471.3 601 450 601C428.7 601 407.3 601 385.8 601C364.3 601 342.7 601 321.2 601C299.7 601 278.3 601 257 601C235.7 601 214.3 601 193 601C171.7 601 150.3 601 128.8 601C107.3 601 85.7 601 64.2 601C42.7 601 21.3 601 10.7 601L0 601Z" fill="#0066FF" stroke-linecap="round" stroke-linejoin="miter"></path></svg>