<?xml version="1.0" standalone="no"?>
<!DOCTYPE svg PUBLIC "-//W3C//DTD SVG 20010904//EN"
 "http://www.w3.org/TR/2001/REC-SVG-20010904/DTD/svg10.dtd">
<svg version="1.0" xmlns="http://www.w3.org/2000/svg"
 width="1080.000000pt" height="1080.000000pt" viewBox="0 0 1080.000000 1080.000000"
 preserveAspectRatio="xMidYMid meet">

<g transform="translate(0.000000,1080.000000) scale(0.100000,-0.100000)"
fill="#000000" stroke="none">
<path d="M3760 10493 c0 -5 63 -116 140 -248 l139 -240 -287 -3 -288 -2 -281
-488 c-155 -268 -284 -494 -288 -502 -3 -9 53 -116 135 -258 77 -133 140 -244
140 -247 0 -3 -128 -6 -285 -7 l-284 -3 287 -497 287 -498 288 0 288 0 -12 23
c-7 12 -70 123 -141 245 -71 123 -128 226 -125 228 2 2 130 3 285 2 l281 -3
-281 -485 c-154 -267 -282 -491 -285 -497 -4 -10 59 -13 283 -15 l288 -3 143
-247 143 -248 -141 -245 c-78 -135 -144 -245 -148 -245 -3 0 -70 110 -147 245
l-141 245 -142 -245 c-77 -134 -141 -247 -141 -250 0 -3 259 -6 576 -7 l575
-3 139 -240 c77 -132 140 -243 140 -248 0 -4 -129 -6 -286 -5 l-287 3 -138
240 c-77 132 -142 241 -146 242 -7 2 -283 -466 -283 -480 0 -4 128 -8 284 -9
l284 -3 -144 -247 -143 -248 143 -247 144 -248 286 -3 c157 -1 286 -5 286 -9
0 -13 -276 -483 -282 -480 -4 1 -70 110 -147 242 l-138 240 -287 3 c-157 1
-286 -1 -286 -5 0 -5 63 -116 140 -248 l139 -240 -285 -3 c-222 -2 -285 -5
-281 -15 3 -6 66 -118 141 -247 l136 -235 -282 -3 c-154 -1 -283 0 -286 3 -3
2 0 11 7 19 9 11 6 18 -15 35 -15 12 -23 21 -19 21 5 0 17 -7 27 -17 10 -9 20
-14 22 -12 4 5 102 176 140 244 6 11 31 52 55 92 23 40 40 77 36 83 -4 6 -1 9
6 8 6 -2 14 3 16 10 4 9 -57 12 -281 12 l-287 0 17 -32 c9 -18 36 -64 59 -103
23 -38 54 -92 70 -120 15 -27 33 -53 39 -57 6 -4 8 -8 4 -8 -4 0 15 -38 42
-84 28 -47 50 -87 50 -90 0 -3 -649 -7 -1442 -8 l-1442 -3 -143 -245 -142
-245 0 -1502 -1 -1503 5400 0 5400 0 0 1500 0 1500 -490 0 c-269 0 -490 2
-490 4 0 3 57 103 126 223 69 120 132 230 140 245 l15 28 -141 0 c-139 0 -141
0 -150 -24 -7 -18 -14 -23 -29 -19 -12 3 -21 14 -21 24 0 18 -9 19 -115 19
-63 0 -115 -2 -115 -3 0 -2 63 -113 140 -246 77 -133 140 -244 140 -247 0 -2
-387 -4 -860 -4 -473 0 -860 3 -860 8 0 4 63 115 140 247 l139 240 -286 3
c-221 2 -284 5 -280 15 3 6 66 118 141 247 l136 235 -285 3 c-157 1 -285 4
-285 6 0 2 63 113 140 246 77 133 140 244 140 246 0 2 -129 4 -287 4 l-288 1
-143 249 -144 250 141 244 c78 134 141 249 141 256 0 7 -63 122 -141 256
l-141 244 429 742 c235 407 429 746 431 753 2 6 -60 121 -138 254 -77 134
-140 247 -140 251 0 4 63 117 140 250 77 133 140 244 140 246 0 2 -128 5 -285
6 l-285 3 140 243 c77 133 140 244 140 247 0 3 -128 6 -285 7 l-284 3 139 240
c77 132 140 243 140 247 0 4 -128 9 -284 10 l-284 3 93 160 c65 111 90 164 83
172 -5 6 -12 46 -15 87 l-6 76 -508 0 c-280 0 -509 3 -509 6 0 3 61 112 136
242 75 130 139 240 141 245 2 4 -514 7 -1146 7 -633 0 -1151 -3 -1151 -7z
m248 -1551 c-18 -32 -82 -144 -143 -250 l-110 -191 -288 -1 c-161 0 -287 4
-285 9 2 5 66 117 143 250 l139 241 289 0 288 0 -33 -58z m1633 -669 c13 -16
12 -17 -3 -4 -10 7 -18 15 -18 17 0 8 8 3 21 -13z m274 -2 c3 -5 0 -13 -6 -17
-7 -4 -9 -3 -5 4 3 5 0 13 -6 15 -9 4 -10 6 -1 6 6 1 14 -3 18 -8z m-148 -278
c-19 -38 -571 -992 -572 -990 -1 1 -129 223 -285 492 -155 270 -284 493 -287
498 -2 4 255 7 572 7 317 0 574 -3 572 -7z m-2028 -6515 c-7 -13 -70 -123
-141 -245 -70 -122 -128 -227 -128 -233 0 -6 63 -120 140 -253 l140 -242 -282
-3 c-154 -1 -283 -1 -285 2 -2 2 59 112 137 246 77 133 140 246 140 250 0 4
-63 117 -140 250 -77 133 -140 243 -140 246 0 2 128 4 285 4 l286 0 -12 -22z"/>
<path d="M10737 3403 c31 -54 57 -100 59 -102 2 -2 4 41 4 97 l0 102 -60 0
-59 0 56 -97z"/>
</g>
</svg>
